<svg xmlns="http://www.w3.org/2000/svg" xmlns:xlink="http://www.w3.org/1999/xlink" width="428" zoomAndPan="magnify" viewBox="0 0 321 40.499999" height="54" preserveAspectRatio="xMidYMid meet" version="1.0"><defs><g/><clipPath id="e06bb007e8"><path d="M 1.957031 0 L 318.527344 0 L 318.527344 39.648438 L 1.957031 39.648438 Z M 1.957031 0 " clip-rule="nonzero"/></clipPath><clipPath id="03279bd095"><path d="M 318.5 19.824219 C 318.5 30.855469 309.707031 39.648438 298.859375 39.648438 L 21.597656 39.648438 C 10.75 39.648438 1.957031 30.855469 1.957031 19.824219 C 1.957031 8.792969 10.75 0 21.597656 0 L 298.859375 0 C 309.703125 0 318.5 8.792969 318.5 19.824219 Z M 318.5 19.824219 " clip-rule="nonzero"/></clipPath></defs><g clip-path="url(#e06bb007e8)"><g clip-path="url(#03279bd095)"><path fill="#f91d19" d="M 1.957031 0 L 318.527344 0 L 318.527344 39.648438 L 1.957031 39.648438 Z M 1.957031 0 " fill-opacity="1" fill-rule="nonzero"/></g></g><path stroke-linecap="butt" transform="matrix(0.740615, 0.0188042, -0.0188042, 0.740615, 234.400024, 18.156649)" fill="none" stroke-linejoin="miter" d="M -0.00104357 1.497399 L 57.600047 1.501172 " stroke="#ffffff" stroke-width="3" stroke-opacity="1" stroke-miterlimit="4"/><path stroke-linecap="round" transform="matrix(0.740615, 0.0188042, -0.0188042, 0.740615, 234.400024, 18.156649)" fill="none" stroke-linejoin="round" d="M 51.599646 -2.99844 L 57.600047 1.501172 L 51.596037 5.999665 " stroke="#ffffff" stroke-width="3" stroke-opacity="1" stroke-miterlimit="4"/><g fill="#ffffff" fill-opacity="1"><g transform="translate(19.851504, 22.047381)"><g><path d="M 4.40625 0.15625 C 3.632812 0.15625 2.953125 -0.0078125 2.359375 -0.34375 C 1.765625 -0.6875 1.300781 -1.15625 0.96875 -1.75 C 0.632812 -2.34375 0.46875 -3.03125 0.46875 -3.8125 C 0.46875 -4.59375 0.632812 -5.28125 0.96875 -5.875 C 1.300781 -6.46875 1.765625 -6.929688 2.359375 -7.265625 C 2.953125 -7.609375 3.632812 -7.78125 4.40625 -7.78125 C 5.050781 -7.78125 5.640625 -7.65625 6.171875 -7.40625 C 6.710938 -7.15625 7.164062 -6.804688 7.53125 -6.359375 C 7.894531 -5.910156 8.148438 -5.378906 8.296875 -4.765625 L 6.515625 -4.765625 C 6.367188 -5.191406 6.109375 -5.523438 5.734375 -5.765625 C 5.367188 -6.003906 4.941406 -6.125 4.453125 -6.125 C 4.023438 -6.125 3.640625 -6.023438 3.296875 -5.828125 C 2.960938 -5.640625 2.703125 -5.367188 2.515625 -5.015625 C 2.328125 -4.671875 2.234375 -4.269531 2.234375 -3.8125 C 2.234375 -3.351562 2.328125 -2.945312 2.515625 -2.59375 C 2.703125 -2.25 2.960938 -1.976562 3.296875 -1.78125 C 3.628906 -1.582031 4.007812 -1.484375 4.4375 -1.484375 C 4.9375 -1.484375 5.375 -1.613281 5.75 -1.875 C 6.132812 -2.132812 6.40625 -2.484375 6.5625 -2.921875 L 8.359375 -2.921875 C 8.234375 -2.304688 7.984375 -1.765625 7.609375 -1.296875 C 7.242188 -0.835938 6.785156 -0.476562 6.234375 -0.21875 C 5.679688 0.03125 5.070312 0.15625 4.40625 0.15625 Z M 4.40625 0.15625 "/></g></g></g><g fill="#ffffff" fill-opacity="1"><g transform="translate(29.504177, 22.047381)"><g><path d="M 4.53125 0.15625 C 3.738281 0.15625 3.035156 -0.0078125 2.421875 -0.34375 C 1.804688 -0.6875 1.328125 -1.15625 0.984375 -1.75 C 0.640625 -2.34375 0.46875 -3.03125 0.46875 -3.8125 C 0.46875 -4.59375 0.640625 -5.28125 0.984375 -5.875 C 1.328125 -6.46875 1.804688 -6.929688 2.421875 -7.265625 C 3.035156 -7.609375 3.738281 -7.78125 4.53125 -7.78125 C 5.332031 -7.78125 6.035156 -7.609375 6.640625 -7.265625 C 7.253906 -6.929688 7.734375 -6.46875 8.078125 -5.875 C 8.429688 -5.28125 8.609375 -4.59375 8.609375 -3.8125 C 8.609375 -3.03125 8.429688 -2.34375 8.078125 -1.75 C 7.734375 -1.15625 7.253906 -0.6875 6.640625 -0.34375 C 6.035156 -0.0078125 5.332031 0.15625 4.53125 0.15625 Z M 2.234375 -3.8125 C 2.234375 -3.351562 2.332031 -2.945312 2.53125 -2.59375 C 2.726562 -2.25 3 -1.976562 3.34375 -1.78125 C 3.6875 -1.582031 4.082031 -1.484375 4.53125 -1.484375 C 4.988281 -1.484375 5.390625 -1.582031 5.734375 -1.78125 C 6.078125 -1.976562 6.34375 -2.25 6.53125 -2.59375 C 6.726562 -2.945312 6.828125 -3.351562 6.828125 -3.8125 C 6.828125 -4.269531 6.726562 -4.671875 6.53125 -5.015625 C 6.34375 -5.367188 6.078125 -5.640625 5.734375 -5.828125 C 5.390625 -6.023438 4.988281 -6.125 4.53125 -6.125 C 4.082031 -6.125 3.6875 -6.023438 3.34375 -5.828125 C 3 -5.640625 2.726562 -5.367188 2.53125 -5.015625 C 2.332031 -4.671875 2.234375 -4.269531 2.234375 -3.8125 Z M 2.234375 -3.8125 "/></g></g></g><g fill="#ffffff" fill-opacity="1"><g transform="translate(39.439769, 22.047381)"><g><path d="M 0.921875 0 L 0.921875 -7.625 L 2.390625 -7.625 L 5.75 -2.984375 L 5.75 -7.625 L 7.46875 -7.625 L 7.46875 0 L 6 0 L 2.640625 -4.671875 L 2.640625 0 Z M 0.921875 0 "/></g></g></g><g fill="#ffffff" fill-opacity="1"><g transform="translate(48.689831, 22.047381)"><g><path d="M 5.625 0 L 5.625 -3.078125 L 2.640625 -3.078125 L 2.640625 0 L 0.921875 0 L 0.921875 -7.625 L 2.640625 -7.625 L 2.640625 -4.6875 L 5.625 -4.6875 L 5.625 -7.625 L 7.359375 -7.625 L 7.359375 0 Z M 5.625 0 "/></g></g></g><g fill="#ffffff" fill-opacity="1"><g transform="translate(57.831089, 22.047381)"><g><path d="M 0.921875 0 L 0.921875 -7.625 L 5.921875 -7.625 L 5.921875 -6.171875 L 2.640625 -6.171875 L 2.640625 -4.578125 L 5.625 -4.578125 L 5.625 -3.140625 L 2.640625 -3.140625 L 2.640625 -1.46875 L 6.046875 -1.46875 L 6.046875 0 Z M 0.921875 0 "/></g></g></g><g fill="#ffffff" fill-opacity="1"><g transform="translate(65.29662, 22.047381)"><g><path d="M 3.46875 2.96875 L 3.46875 2 L 4.234375 2 C 4.515625 2 4.65625 1.882812 4.65625 1.65625 C 4.65625 1.425781 4.515625 1.3125 4.234375 1.3125 L 3.8125 1.3125 L 3.609375 1.046875 L 3.90625 0.125 C 3.226562 0.0507812 2.628906 -0.15625 2.109375 -0.5 C 1.597656 -0.851562 1.195312 -1.3125 0.90625 -1.875 C 0.613281 -2.445312 0.46875 -3.09375 0.46875 -3.8125 C 0.46875 -4.59375 0.632812 -5.28125 0.96875 -5.875 C 1.300781 -6.46875 1.765625 -6.929688 2.359375 -7.265625 C 2.953125 -7.609375 3.632812 -7.78125 4.40625 -7.78125 C 5.050781 -7.78125 5.640625 -7.65625 6.171875 -7.40625 C 6.710938 -7.15625 7.164062 -6.804688 7.53125 -6.359375 C 7.894531 -5.910156 8.148438 -5.378906 8.296875 -4.765625 L 6.515625 -4.765625 C 6.367188 -5.191406 6.109375 -5.523438 5.734375 -5.765625 C 5.367188 -6.003906 4.941406 -6.125 4.453125 -6.125 C 4.023438 -6.125 3.640625 -6.023438 3.296875 -5.828125 C 2.960938 -5.640625 2.703125 -5.367188 2.515625 -5.015625 C 2.328125 -4.671875 2.234375 -4.269531 2.234375 -3.8125 C 2.234375 -3.351562 2.328125 -2.945312 2.515625 -2.59375 C 2.703125 -2.25 2.960938 -1.976562 3.296875 -1.78125 C 3.628906 -1.582031 4.007812 -1.484375 4.4375 -1.484375 C 4.9375 -1.484375 5.375 -1.613281 5.75 -1.875 C 6.132812 -2.132812 6.40625 -2.484375 6.5625 -2.921875 L 8.359375 -2.921875 C 8.234375 -2.347656 8.007812 -1.84375 7.6875 -1.40625 C 7.363281 -0.96875 6.957031 -0.613281 6.46875 -0.34375 C 5.988281 -0.0820312 5.453125 0.0703125 4.859375 0.125 L 4.71875 0.53125 C 5.0625 0.59375 5.320312 0.734375 5.5 0.953125 C 5.6875 1.171875 5.78125 1.4375 5.78125 1.75 C 5.78125 2.101562 5.65625 2.394531 5.40625 2.625 C 5.164062 2.851562 4.820312 2.96875 4.375 2.96875 Z M 3.46875 2.96875 "/></g></g></g><g fill="#ffffff" fill-opacity="1"><g transform="translate(74.949291, 22.047381)"><g><path d="M 0.09375 0 L 3.125 -7.625 L 4.828125 -7.625 L 7.859375 0 L 6 0 L 5.484375 -1.3125 L 2.46875 -1.3125 L 1.953125 0 Z M 2.90625 -2.671875 L 5.046875 -2.671875 L 3.96875 -5.46875 Z M 2.90625 -2.671875 "/></g></g></g><g fill="#ffffff" fill-opacity="1"><g transform="translate(83.764105, 22.047381)"><g/></g></g><g fill="#ffffff" fill-opacity="1"><g transform="translate(87.192661, 22.047381)"><g><path d="M 0.921875 0 L 0.921875 -7.625 L 2.390625 -7.625 L 5.75 -2.984375 L 5.75 -7.625 L 7.46875 -7.625 L 7.46875 0 L 6 0 L 2.640625 -4.671875 L 2.640625 0 Z M 0.921875 0 "/></g></g></g><g fill="#ffffff" fill-opacity="1"><g transform="translate(96.442722, 22.047381)"><g><path d="M 4.53125 0.15625 C 3.738281 0.15625 3.035156 -0.0078125 2.421875 -0.34375 C 1.804688 -0.6875 1.328125 -1.15625 0.984375 -1.75 C 0.640625 -2.34375 0.46875 -3.03125 0.46875 -3.8125 C 0.46875 -4.59375 0.640625 -5.28125 0.984375 -5.875 C 1.328125 -6.46875 1.804688 -6.929688 2.421875 -7.265625 C 3.035156 -7.609375 3.738281 -7.78125 4.53125 -7.78125 C 5.332031 -7.78125 6.035156 -7.609375 6.640625 -7.265625 C 7.253906 -6.929688 7.734375 -6.46875 8.078125 -5.875 C 8.429688 -5.28125 8.609375 -4.59375 8.609375 -3.8125 C 8.609375 -3.03125 8.429688 -2.34375 8.078125 -1.75 C 7.734375 -1.15625 7.253906 -0.6875 6.640625 -0.34375 C 6.035156 -0.0078125 5.332031 0.15625 4.53125 0.15625 Z M 2.234375 -3.8125 C 2.234375 -3.351562 2.332031 -2.945312 2.53125 -2.59375 C 2.726562 -2.25 3 -1.976562 3.34375 -1.78125 C 3.6875 -1.582031 4.082031 -1.484375 4.53125 -1.484375 C 4.988281 -1.484375 5.390625 -1.582031 5.734375 -1.78125 C 6.078125 -1.976562 6.34375 -2.25 6.53125 -2.59375 C 6.726562 -2.945312 6.828125 -3.351562 6.828125 -3.8125 C 6.828125 -4.269531 6.726562 -4.671875 6.53125 -5.015625 C 6.34375 -5.367188 6.078125 -5.640625 5.734375 -5.828125 C 5.390625 -6.023438 4.988281 -6.125 4.53125 -6.125 C 4.082031 -6.125 3.6875 -6.023438 3.34375 -5.828125 C 3 -5.640625 2.726562 -5.367188 2.53125 -5.015625 C 2.332031 -4.671875 2.234375 -4.269531 2.234375 -3.8125 Z M 2.234375 -3.8125 "/></g></g></g><g fill="#ffffff" fill-opacity="1"><g transform="translate(106.378312, 22.047381)"><g><path d="M 3.578125 0.15625 C 2.929688 0.15625 2.378906 0.0507812 1.921875 -0.15625 C 1.460938 -0.375 1.109375 -0.675781 0.859375 -1.0625 C 0.609375 -1.445312 0.484375 -1.898438 0.484375 -2.421875 L 2.171875 -2.421875 C 2.171875 -2.066406 2.296875 -1.785156 2.546875 -1.578125 C 2.796875 -1.378906 3.132812 -1.28125 3.5625 -1.28125 C 3.925781 -1.28125 4.210938 -1.347656 4.421875 -1.484375 C 4.628906 -1.628906 4.734375 -1.828125 4.734375 -2.078125 C 4.734375 -2.347656 4.601562 -2.566406 4.34375 -2.734375 C 4.09375 -2.898438 3.703125 -3.039062 3.171875 -3.15625 C 2.273438 -3.34375 1.613281 -3.628906 1.1875 -4.015625 C 0.757812 -4.398438 0.546875 -4.898438 0.546875 -5.515625 C 0.546875 -6.210938 0.796875 -6.765625 1.296875 -7.171875 C 1.804688 -7.578125 2.503906 -7.78125 3.390625 -7.78125 C 3.992188 -7.78125 4.515625 -7.675781 4.953125 -7.46875 C 5.398438 -7.257812 5.742188 -6.96875 5.984375 -6.59375 C 6.222656 -6.21875 6.34375 -5.773438 6.34375 -5.265625 L 4.6875 -5.265625 C 4.6875 -5.597656 4.570312 -5.863281 4.34375 -6.0625 C 4.113281 -6.257812 3.800781 -6.359375 3.40625 -6.359375 C 3.039062 -6.359375 2.753906 -6.285156 2.546875 -6.140625 C 2.335938 -6.003906 2.234375 -5.804688 2.234375 -5.546875 C 2.234375 -5.316406 2.347656 -5.125 2.578125 -4.96875 C 2.804688 -4.8125 3.210938 -4.660156 3.796875 -4.515625 C 4.753906 -4.296875 5.441406 -3.992188 5.859375 -3.609375 C 6.273438 -3.234375 6.484375 -2.742188 6.484375 -2.140625 C 6.484375 -1.421875 6.222656 -0.859375 5.703125 -0.453125 C 5.191406 -0.046875 4.484375 0.15625 3.578125 0.15625 Z M 3.578125 0.15625 "/></g></g></g><g fill="#ffffff" fill-opacity="1"><g transform="translate(114.224689, 22.047381)"><g><path d="M 3.578125 0.15625 C 2.929688 0.15625 2.378906 0.0507812 1.921875 -0.15625 C 1.460938 -0.375 1.109375 -0.675781 0.859375 -1.0625 C 0.609375 -1.445312 0.484375 -1.898438 0.484375 -2.421875 L 2.171875 -2.421875 C 2.171875 -2.066406 2.296875 -1.785156 2.546875 -1.578125 C 2.796875 -1.378906 3.132812 -1.28125 3.5625 -1.28125 C 3.925781 -1.28125 4.210938 -1.347656 4.421875 -1.484375 C 4.628906 -1.628906 4.734375 -1.828125 4.734375 -2.078125 C 4.734375 -2.347656 4.601562 -2.566406 4.34375 -2.734375 C 4.09375 -2.898438 3.703125 -3.039062 3.171875 -3.15625 C 2.273438 -3.34375 1.613281 -3.628906 1.1875 -4.015625 C 0.757812 -4.398438 0.546875 -4.898438 0.546875 -5.515625 C 0.546875 -6.210938 0.796875 -6.765625 1.296875 -7.171875 C 1.804688 -7.578125 2.503906 -7.78125 3.390625 -7.78125 C 3.992188 -7.78125 4.515625 -7.675781 4.953125 -7.46875 C 5.398438 -7.257812 5.742188 -6.96875 5.984375 -6.59375 C 6.222656 -6.21875 6.34375 -5.773438 6.34375 -5.265625 L 4.6875 -5.265625 C 4.6875 -5.597656 4.570312 -5.863281 4.34375 -6.0625 C 4.113281 -6.257812 3.800781 -6.359375 3.40625 -6.359375 C 3.039062 -6.359375 2.753906 -6.285156 2.546875 -6.140625 C 2.335938 -6.003906 2.234375 -5.804688 2.234375 -5.546875 C 2.234375 -5.316406 2.347656 -5.125 2.578125 -4.96875 C 2.804688 -4.8125 3.210938 -4.660156 3.796875 -4.515625 C 4.753906 -4.296875 5.441406 -3.992188 5.859375 -3.609375 C 6.273438 -3.234375 6.484375 -2.742188 6.484375 -2.140625 C 6.484375 -1.421875 6.222656 -0.859375 5.703125 -0.453125 C 5.191406 -0.046875 4.484375 0.15625 3.578125 0.15625 Z M 3.578125 0.15625 "/></g></g></g><g fill="#ffffff" fill-opacity="1"><g transform="translate(122.071066, 22.047381)"><g><path d="M 4.53125 0.15625 C 3.738281 0.15625 3.035156 -0.0078125 2.421875 -0.34375 C 1.804688 -0.6875 1.328125 -1.15625 0.984375 -1.75 C 0.640625 -2.34375 0.46875 -3.03125 0.46875 -3.8125 C 0.46875 -4.59375 0.640625 -5.28125 0.984375 -5.875 C 1.328125 -6.46875 1.804688 -6.929688 2.421875 -7.265625 C 3.035156 -7.609375 3.738281 -7.78125 4.53125 -7.78125 C 5.332031 -7.78125 6.035156 -7.609375 6.640625 -7.265625 C 7.253906 -6.929688 7.734375 -6.46875 8.078125 -5.875 C 8.429688 -5.28125 8.609375 -4.59375 8.609375 -3.8125 C 8.609375 -3.03125 8.429688 -2.34375 8.078125 -1.75 C 7.734375 -1.15625 7.253906 -0.6875 6.640625 -0.34375 C 6.035156 -0.0078125 5.332031 0.15625 4.53125 0.15625 Z M 2.234375 -3.8125 C 2.234375 -3.351562 2.332031 -2.945312 2.53125 -2.59375 C 2.726562 -2.25 3 -1.976562 3.34375 -1.78125 C 3.6875 -1.582031 4.082031 -1.484375 4.53125 -1.484375 C 4.988281 -1.484375 5.390625 -1.582031 5.734375 -1.78125 C 6.078125 -1.976562 6.34375 -2.25 6.53125 -2.59375 C 6.726562 -2.945312 6.828125 -3.351562 6.828125 -3.8125 C 6.828125 -4.269531 6.726562 -4.671875 6.53125 -5.015625 C 6.34375 -5.367188 6.078125 -5.640625 5.734375 -5.828125 C 5.390625 -6.023438 4.988281 -6.125 4.53125 -6.125 C 4.082031 -6.125 3.6875 -6.023438 3.34375 -5.828125 C 3 -5.640625 2.726562 -5.367188 2.53125 -5.015625 C 2.332031 -4.671875 2.234375 -4.269531 2.234375 -3.8125 Z M 2.234375 -3.8125 "/></g></g></g><g fill="#ffffff" fill-opacity="1"><g transform="translate(132.006662, 22.047381)"><g><path d="M 3.578125 0.15625 C 2.929688 0.15625 2.378906 0.0507812 1.921875 -0.15625 C 1.460938 -0.375 1.109375 -0.675781 0.859375 -1.0625 C 0.609375 -1.445312 0.484375 -1.898438 0.484375 -2.421875 L 2.171875 -2.421875 C 2.171875 -2.066406 2.296875 -1.785156 2.546875 -1.578125 C 2.796875 -1.378906 3.132812 -1.28125 3.5625 -1.28125 C 3.925781 -1.28125 4.210938 -1.347656 4.421875 -1.484375 C 4.628906 -1.628906 4.734375 -1.828125 4.734375 -2.078125 C 4.734375 -2.347656 4.601562 -2.566406 4.34375 -2.734375 C 4.09375 -2.898438 3.703125 -3.039062 3.171875 -3.15625 C 2.273438 -3.34375 1.613281 -3.628906 1.1875 -4.015625 C 0.757812 -4.398438 0.546875 -4.898438 0.546875 -5.515625 C 0.546875 -6.210938 0.796875 -6.765625 1.296875 -7.171875 C 1.804688 -7.578125 2.503906 -7.78125 3.390625 -7.78125 C 3.992188 -7.78125 4.515625 -7.675781 4.953125 -7.46875 C 5.398438 -7.257812 5.742188 -6.96875 5.984375 -6.59375 C 6.222656 -6.21875 6.34375 -5.773438 6.34375 -5.265625 L 4.6875 -5.265625 C 4.6875 -5.597656 4.570312 -5.863281 4.34375 -6.0625 C 4.113281 -6.257812 3.800781 -6.359375 3.40625 -6.359375 C 3.039062 -6.359375 2.753906 -6.285156 2.546875 -6.140625 C 2.335938 -6.003906 2.234375 -5.804688 2.234375 -5.546875 C 2.234375 -5.316406 2.347656 -5.125 2.578125 -4.96875 C 2.804688 -4.8125 3.210938 -4.660156 3.796875 -4.515625 C 4.753906 -4.296875 5.441406 -3.992188 5.859375 -3.609375 C 6.273438 -3.234375 6.484375 -2.742188 6.484375 -2.140625 C 6.484375 -1.421875 6.222656 -0.859375 5.703125 -0.453125 C 5.191406 -0.046875 4.484375 0.15625 3.578125 0.15625 Z M 3.578125 0.15625 "/></g></g></g><g fill="#ffffff" fill-opacity="1"><g transform="translate(139.853045, 22.047381)"><g/></g></g><g fill="#ffffff" fill-opacity="1"><g transform="translate(143.281607, 22.047381)"><g><path d="M 3.578125 0.15625 C 2.929688 0.15625 2.378906 0.0507812 1.921875 -0.15625 C 1.460938 -0.375 1.109375 -0.675781 0.859375 -1.0625 C 0.609375 -1.445312 0.484375 -1.898438 0.484375 -2.421875 L 2.171875 -2.421875 C 2.171875 -2.066406 2.296875 -1.785156 2.546875 -1.578125 C 2.796875 -1.378906 3.132812 -1.28125 3.5625 -1.28125 C 3.925781 -1.28125 4.210938 -1.347656 4.421875 -1.484375 C 4.628906 -1.628906 4.734375 -1.828125 4.734375 -2.078125 C 4.734375 -2.347656 4.601562 -2.566406 4.34375 -2.734375 C 4.09375 -2.898438 3.703125 -3.039062 3.171875 -3.15625 C 2.273438 -3.34375 1.613281 -3.628906 1.1875 -4.015625 C 0.757812 -4.398438 0.546875 -4.898438 0.546875 -5.515625 C 0.546875 -6.210938 0.796875 -6.765625 1.296875 -7.171875 C 1.804688 -7.578125 2.503906 -7.78125 3.390625 -7.78125 C 3.992188 -7.78125 4.515625 -7.675781 4.953125 -7.46875 C 5.398438 -7.257812 5.742188 -6.96875 5.984375 -6.59375 C 6.222656 -6.21875 6.34375 -5.773438 6.34375 -5.265625 L 4.6875 -5.265625 C 4.6875 -5.597656 4.570312 -5.863281 4.34375 -6.0625 C 4.113281 -6.257812 3.800781 -6.359375 3.40625 -6.359375 C 3.039062 -6.359375 2.753906 -6.285156 2.546875 -6.140625 C 2.335938 -6.003906 2.234375 -5.804688 2.234375 -5.546875 C 2.234375 -5.316406 2.347656 -5.125 2.578125 -4.96875 C 2.804688 -4.8125 3.210938 -4.660156 3.796875 -4.515625 C 4.753906 -4.296875 5.441406 -3.992188 5.859375 -3.609375 C 6.273438 -3.234375 6.484375 -2.742188 6.484375 -2.140625 C 6.484375 -1.421875 6.222656 -0.859375 5.703125 -0.453125 C 5.191406 -0.046875 4.484375 0.15625 3.578125 0.15625 Z M 3.578125 0.15625 "/></g></g></g><g fill="#ffffff" fill-opacity="1"><g transform="translate(151.12799, 22.047381)"><g><path d="M 0.921875 0 L 0.921875 -7.625 L 5.921875 -7.625 L 5.921875 -6.171875 L 2.640625 -6.171875 L 2.640625 -4.578125 L 5.625 -4.578125 L 5.625 -3.140625 L 2.640625 -3.140625 L 2.640625 -1.46875 L 6.046875 -1.46875 L 6.046875 0 Z M 0.921875 0 "/></g></g></g><g fill="#ffffff" fill-opacity="1"><g transform="translate(158.593523, 22.047381)"><g><path d="M 0.921875 0 L 0.921875 -7.625 L 4.171875 -7.625 C 4.753906 -7.625 5.257812 -7.515625 5.6875 -7.296875 C 6.113281 -7.085938 6.441406 -6.785156 6.671875 -6.390625 C 6.910156 -6.003906 7.03125 -5.539062 7.03125 -5 C 7.03125 -4.4375 6.898438 -3.953125 6.640625 -3.546875 C 6.390625 -3.148438 6.035156 -2.847656 5.578125 -2.640625 L 7.15625 0 L 5.15625 0 L 3.796875 -2.375 L 2.640625 -2.375 L 2.640625 0 Z M 2.625 -3.828125 L 3.9375 -3.828125 C 4.363281 -3.828125 4.691406 -3.925781 4.921875 -4.125 C 5.148438 -4.332031 5.265625 -4.617188 5.265625 -4.984375 C 5.265625 -5.359375 5.148438 -5.644531 4.921875 -5.84375 C 4.691406 -6.039062 4.363281 -6.140625 3.9375 -6.140625 L 2.625 -6.140625 Z M 2.625 -3.828125 "/></g></g></g><g fill="#ffffff" fill-opacity="1"><g transform="translate(167.125424, 22.047381)"><g><path d="M 3.03125 0 L 0.09375 -7.625 L 1.953125 -7.625 L 2.96875 -4.90625 L 3.890625 -2.5 L 5.8125 -7.625 L 7.65625 -7.625 L 4.734375 0 Z M 3.03125 0 "/></g></g></g><g fill="#ffffff" fill-opacity="1"><g transform="translate(175.744382, 22.047381)"><g><path d="M 0.921875 0 L 0.921875 -7.625 L 2.640625 -7.625 L 2.640625 0 Z M 0.921875 0 "/></g></g></g><g fill="#ffffff" fill-opacity="1"><g transform="translate(180.174027, 22.047381)"><g><path d="M 3.46875 2.96875 L 3.46875 2 L 4.234375 2 C 4.515625 2 4.65625 1.882812 4.65625 1.65625 C 4.65625 1.425781 4.515625 1.3125 4.234375 1.3125 L 3.8125 1.3125 L 3.609375 1.046875 L 3.90625 0.125 C 3.226562 0.0507812 2.628906 -0.15625 2.109375 -0.5 C 1.597656 -0.851562 1.195312 -1.3125 0.90625 -1.875 C 0.613281 -2.445312 0.46875 -3.09375 0.46875 -3.8125 C 0.46875 -4.59375 0.632812 -5.28125 0.96875 -5.875 C 1.300781 -6.46875 1.765625 -6.929688 2.359375 -7.265625 C 2.953125 -7.609375 3.632812 -7.78125 4.40625 -7.78125 C 5.050781 -7.78125 5.640625 -7.65625 6.171875 -7.40625 C 6.710938 -7.15625 7.164062 -6.804688 7.53125 -6.359375 C 7.894531 -5.910156 8.148438 -5.378906 8.296875 -4.765625 L 6.515625 -4.765625 C 6.367188 -5.191406 6.109375 -5.523438 5.734375 -5.765625 C 5.367188 -6.003906 4.941406 -6.125 4.453125 -6.125 C 4.023438 -6.125 3.640625 -6.023438 3.296875 -5.828125 C 2.960938 -5.640625 2.703125 -5.367188 2.515625 -5.015625 C 2.328125 -4.671875 2.234375 -4.269531 2.234375 -3.8125 C 2.234375 -3.351562 2.328125 -2.945312 2.515625 -2.59375 C 2.703125 -2.25 2.960938 -1.976562 3.296875 -1.78125 C 3.628906 -1.582031 4.007812 -1.484375 4.4375 -1.484375 C 4.9375 -1.484375 5.375 -1.613281 5.75 -1.875 C 6.132812 -2.132812 6.40625 -2.484375 6.5625 -2.921875 L 8.359375 -2.921875 C 8.234375 -2.347656 8.007812 -1.84375 7.6875 -1.40625 C 7.363281 -0.96875 6.957031 -0.613281 6.46875 -0.34375 C 5.988281 -0.0820312 5.453125 0.0703125 4.859375 0.125 L 4.71875 0.53125 C 5.0625 0.59375 5.320312 0.734375 5.5 0.953125 C 5.6875 1.171875 5.78125 1.4375 5.78125 1.75 C 5.78125 2.101562 5.65625 2.394531 5.40625 2.625 C 5.164062 2.851562 4.820312 2.96875 4.375 2.96875 Z M 3.46875 2.96875 "/></g></g></g><g fill="#ffffff" fill-opacity="1"><g transform="translate(189.826704, 22.047381)"><g><path d="M 4.53125 0.15625 C 3.738281 0.15625 3.035156 -0.0078125 2.421875 -0.34375 C 1.804688 -0.6875 1.328125 -1.15625 0.984375 -1.75 C 0.640625 -2.34375 0.46875 -3.03125 0.46875 -3.8125 C 0.46875 -4.59375 0.640625 -5.28125 0.984375 -5.875 C 1.328125 -6.46875 1.804688 -6.929688 2.421875 -7.265625 C 3.035156 -7.609375 3.738281 -7.78125 4.53125 -7.78125 C 5.332031 -7.78125 6.035156 -7.609375 6.640625 -7.265625 C 7.253906 -6.929688 7.734375 -6.46875 8.078125 -5.875 C 8.429688 -5.28125 8.609375 -4.59375 8.609375 -3.8125 C 8.609375 -3.03125 8.429688 -2.34375 8.078125 -1.75 C 7.734375 -1.15625 7.253906 -0.6875 6.640625 -0.34375 C 6.035156 -0.0078125 5.332031 0.15625 4.53125 0.15625 Z M 2.234375 -3.8125 C 2.234375 -3.351562 2.332031 -2.945312 2.53125 -2.59375 C 2.726562 -2.25 3 -1.976562 3.34375 -1.78125 C 3.6875 -1.582031 4.082031 -1.484375 4.53125 -1.484375 C 4.988281 -1.484375 5.390625 -1.582031 5.734375 -1.78125 C 6.078125 -1.976562 6.34375 -2.25 6.53125 -2.59375 C 6.726562 -2.945312 6.828125 -3.351562 6.828125 -3.8125 C 6.828125 -4.269531 6.726562 -4.671875 6.53125 -5.015625 C 6.34375 -5.367188 6.078125 -5.640625 5.734375 -5.828125 C 5.390625 -6.023438 4.988281 -6.125 4.53125 -6.125 C 4.082031 -6.125 3.6875 -6.023438 3.34375 -5.828125 C 3 -5.640625 2.726562 -5.367188 2.53125 -5.015625 C 2.332031 -4.671875 2.234375 -4.269531 2.234375 -3.8125 Z M 2.234375 -3.8125 "/></g></g></g><g fill="#ffffff" fill-opacity="1"><g transform="translate(199.7623, 22.047381)"><g><path d="M 3.578125 0.15625 C 2.929688 0.15625 2.378906 0.0507812 1.921875 -0.15625 C 1.460938 -0.375 1.109375 -0.675781 0.859375 -1.0625 C 0.609375 -1.445312 0.484375 -1.898438 0.484375 -2.421875 L 2.171875 -2.421875 C 2.171875 -2.066406 2.296875 -1.785156 2.546875 -1.578125 C 2.796875 -1.378906 3.132812 -1.28125 3.5625 -1.28125 C 3.925781 -1.28125 4.210938 -1.347656 4.421875 -1.484375 C 4.628906 -1.628906 4.734375 -1.828125 4.734375 -2.078125 C 4.734375 -2.347656 4.601562 -2.566406 4.34375 -2.734375 C 4.09375 -2.898438 3.703125 -3.039062 3.171875 -3.15625 C 2.273438 -3.34375 1.613281 -3.628906 1.1875 -4.015625 C 0.757812 -4.398438 0.546875 -4.898438 0.546875 -5.515625 C 0.546875 -6.210938 0.796875 -6.765625 1.296875 -7.171875 C 1.804688 -7.578125 2.503906 -7.78125 3.390625 -7.78125 C 3.992188 -7.78125 4.515625 -7.675781 4.953125 -7.46875 C 5.398438 -7.257812 5.742188 -6.96875 5.984375 -6.59375 C 6.222656 -6.21875 6.34375 -5.773438 6.34375 -5.265625 L 4.6875 -5.265625 C 4.6875 -5.597656 4.570312 -5.863281 4.34375 -6.0625 C 4.113281 -6.257812 3.800781 -6.359375 3.40625 -6.359375 C 3.039062 -6.359375 2.753906 -6.285156 2.546875 -6.140625 C 2.335938 -6.003906 2.234375 -5.804688 2.234375 -5.546875 C 2.234375 -5.316406 2.347656 -5.125 2.578125 -4.96875 C 2.804688 -4.8125 3.210938 -4.660156 3.796875 -4.515625 C 4.753906 -4.296875 5.441406 -3.992188 5.859375 -3.609375 C 6.273438 -3.234375 6.484375 -2.742188 6.484375 -2.140625 C 6.484375 -1.421875 6.222656 -0.859375 5.703125 -0.453125 C 5.191406 -0.046875 4.484375 0.15625 3.578125 0.15625 Z M 3.578125 0.15625 "/></g></g></g></svg>